HIERARCHY
ROOT hip
{
	OFFSET 0.000000 0.000000 0.000000 
	CHANNELS 6 Xposition Yposition Zposition Xrotation Zrotation Yrotation
	JOINT abdomen
	{
		OFFSET 0.000000 3.402643 0.000000 
		CHANNELS 3 Xrotation Zrotation Yrotation
		JOINT chest
		{
			OFFSET 0.000000 8.438565 -0.680529 
			CHANNELS 3 Xrotation Zrotation Yrotation
			JOINT neck
			{
				OFFSET 0.000000 10.207942 -0.272212 
				CHANNELS 3 Xrotation Zrotation Yrotation
				JOINT head
				{
					OFFSET 0.000000 3.130431 0.000000 
					CHANNELS 3 Xrotation Zrotation Yrotation
					End Site
					{
						OFFSET 0.000000 3.130435 0.000000 
					}
				}
			}
			JOINT lCollar
			{
				OFFSET 3.470700 6.669187 -0.816635 
				CHANNELS 3 Yrotation Zrotation Xrotation
				JOINT lShldr
				{
					OFFSET 3.198488 0.000000 0.000000 
					CHANNELS 3 Zrotation Yrotation Xrotation
					JOINT lForeArm
					{
						OFFSET 10.139888 0.000000 0.000000 
						CHANNELS 3 Yrotation Zrotation Xrotation
						JOINT lHand
						{
							OFFSET 8.370511 0.000000 0.000000 
							CHANNELS 3 Zrotation Yrotation Xrotation
							End Site
							{
								OFFSET 4.083176 0.000000 0.000000 
							}
						}
					}
				}
			}
			JOINT rCollar
			{
				OFFSET -3.470700 6.669187 -0.816635 
				CHANNELS 3 Yrotation Zrotation Xrotation
				JOINT rShldr
				{
					OFFSET -3.198488 0.000000 0.000000 
					CHANNELS 3 Zrotation Yrotation Xrotation
					JOINT rForeArm
					{
						OFFSET -10.139888 0.000000 0.000000 
						CHANNELS 3 Yrotation Zrotation Xrotation
						JOINT rHand
						{
							OFFSET -8.370511 0.000000 0.000000 
							CHANNELS 3 Zrotation Yrotation Xrotation
							End Site
							{
								OFFSET -4.083176 0.000000 0.000000 
							}
						}
					}
				}
			}
		}
	}
	JOINT lThigh
	{
		OFFSET 5.308129 -1.633274 1.361059 
		CHANNELS 3 Xrotation Zrotation Yrotation
		JOINT lShin
		{
			OFFSET -2.041588 -20.007561 0.000000 
			CHANNELS 3 Xrotation Zrotation Yrotation
			JOINT lFoot
			{
				OFFSET 0.000000 -19.190928 -1.224953 
				CHANNELS 3 Xrotation Yrotation Zrotation
				End Site
				{
					OFFSET 0.000000 -2.449906 4.627600 
				}
			}
		}
	}
	JOINT rThigh
	{
		OFFSET -5.308129 -1.633274 1.361059 
		CHANNELS 3 Xrotation Zrotation Yrotation
		JOINT rShin
		{
			OFFSET 2.041588 -20.007561 0.000000 
			CHANNELS 3 Xrotation Zrotation Yrotation
			JOINT rFoot
			{
				OFFSET 0.000000 -19.190928 -1.224953 
				CHANNELS 3 Xrotation Yrotation Zrotation
				End Site
				{
					OFFSET 0.000000 -2.449906 4.627600 
				}
			}
		}
	}
}
MOTION
Frames: 6
Frame Time: 0.033333
0.434755 48.873177 0.979176 2.344480 -0.575463 2.841850 0.000000 0.000000 0.000000 -0.847973 -0.624744 1.640634 -2.597066 -1.035115 0.507730 1.509150 3.093681 -2.073091 -7.362211 -8.069534 -0.820679 -63.523232 21.854738 1.586388 -35.678741 -3.777532 14.848095 -6.999330 5.502932 -3.658645 14.144367 5.629632 -0.723993 62.458397 -20.675945 3.040998 37.005085 1.669574 23.131876 -9.207067 0.891076 -3.793679 -11.737056 6.054040 2.830749 26.638359 -2.895922 7.896210 -16.466238 0.670162 -4.601164 2.889025 -16.909061 -9.022044 4.525630 3.448493 -10.896319 -4.047799 -0.574640 15.500431 
0.813626 48.854172 0.921076 2.123183 -0.838649 3.056885 0.000000 0.000000 0.000000 -0.554409 -0.536831 1.845714 -2.031271 -1.318214 0.849834 0.765707 3.259402 -2.161373 -6.943187 -8.285043 -0.537500 -64.976395 22.579752 3.159916 -36.587399 -4.020614 16.312279 -5.191047 6.062011 -3.657784 14.433117 5.776933 -0.475435 63.236507 -21.055944 2.558627 37.408783 1.534972 21.970182 -8.558371 0.241031 -3.719558 -11.808923 5.933179 2.953401 27.131643 -3.056259 7.563419 -16.805002 0.612390 -3.973171 2.350930 -16.983089 -9.529646 5.540777 3.585246 -12.196720 -3.426013 -0.491817 15.705662 
1.142550 48.834679 0.865206 1.970940 -1.169778 3.428415 0.000000 0.000000 0.000000 -0.357988 -0.458699 2.021498 -1.428114 -1.484038 1.221052 0.433888 3.298501 -2.132121 -6.808313 -8.210429 -0.352497 -66.002007 23.159586 5.025951 -37.317131 -4.376814 17.579252 -3.542579 6.361933 -3.628958 14.644088 5.948845 -0.332987 63.875690 -21.270063 2.126477 36.927711 1.592901 21.462082 -8.781385 -0.100100 -3.719667 -11.955387 5.884557 2.938522 27.602125 -3.051679 6.724158 -17.137760 0.514625 -3.355266 -0.762280 -17.212971 -9.342011 11.304219 3.686605 -14.255803 -3.575638 -0.550142 16.384819 
1.431924 48.817844 0.843583 1.299740 -1.607805 3.790308 0.000000 0.000000 0.000000 0.156990 -0.234201 2.207013 -0.533012 -1.552090 1.650843 0.499763 2.928118 -1.877041 -6.592179 -8.033297 0.137209 -66.712273 23.318731 6.463042 -37.644665 -4.724962 18.184019 -1.850019 6.110000 -3.576730 14.600101 6.233099 0.084548 64.296104 -21.285610 2.327625 36.428020 1.758210 21.509527 -9.812491 -0.955209 -3.680257 -11.586933 6.042177 3.062878 28.105190 -3.021616 5.898429 -17.455446 0.455996 -2.836131 -2.304787 -16.731476 -9.215526 14.777329 3.449857 -18.117437 -2.664484 -0.400914 16.988045 
1.645770 48.844547 0.817036 0.801894 -2.162414 4.104164 0.000000 0.000000 0.000000 0.453329 0.097570 2.412122 0.226975 -1.639297 2.305420 1.264207 2.733383 -1.544473 -6.385810 -7.783479 0.441936 -67.089928 23.315805 7.593051 -37.655075 -5.080160 18.258642 -0.395506 5.777671 -3.537067 14.861966 6.642470 0.265886 64.522522 -21.650402 2.612761 36.007389 1.926517 21.360168 -10.299109 -1.597357 -3.640007 -11.275692 6.325846 3.165222 28.232639 -2.821877 5.410517 -17.549759 0.411743 -2.562253 -3.954533 -15.695017 -8.791948 17.176035 3.250955 -24.151756 -0.923136 -0.176332 17.212543 
1.761966 48.898884 0.813061 0.458365 -2.492315 4.496423 0.000000 0.000000 0.000000 0.704910 0.253643 2.607483 0.582231 -1.979830 2.931311 2.543064 2.733618 -1.348917 -6.189355 -8.270998 0.628890 -66.388786 23.230120 8.396722 -38.139145 -5.289680 18.273041 0.249018 5.612008 -3.522708 15.202391 6.836744 0.436176 64.899071 -22.044983 2.724372 35.761684 2.018165 21.172483 -10.348517 -1.738771 -3.633105 -10.831807 6.479012 3.192557 27.983673 -2.739506 4.892066 -17.457914 0.362588 -2.279086 -5.009535 -14.744505 -8.505999 18.376690 3.315227 -26.576529 -0.465675 -0.092616 16.582649 
